<svg id="Layer_1" enable-background="new 0 0 511.628 511.628" height="512" viewBox="0 0 511.628 511.628" width="512" xmlns="http://www.w3.org/2000/svg"><g><g clip-rule="evenodd" fill-rule="evenodd"><path d="m201.937 80.676c11.046 0 20 8.954 20 20s-8.954 20-20 20-20-8.954-20-20 8.954-20 20-20zm8.962-70.82c-24.64 0-44.8 20.16-44.8 44.8v3.728c-6.571-3.033-13.887-4.729-21.6-4.729-28.498 0-51.6 23.102-51.6 51.6 0 5.974 1.019 11.708 2.885 17.045-22.964 10.685-38.885 33.959-38.885 60.956 0 20.004 8.744 37.964 22.615 50.274-25.943 12.67-43.815 39.309-43.815 70.125 0 32.738 20.171 60.759 48.76 72.329-.759 4.042-1.16 8.21-1.16 12.472 0 33.414 24.389 61.127 56.335 66.321 5.353 26.846 29.045 47.079 57.465 47.079 32.364 0 58.6-26.236 58.6-58.6v-388.6c-.001-24.64-20.16-44.8-44.8-44.8zm-54.462 142.94c11.046 0 20 8.954 20 20s-8.954 20-20 20-20-8.954-20-20c0-11.045 8.954-20 20-20zm3.731 131.23c0-11.046 8.954-20 20-20s20 8.954 20 20-8.954 20-20 20-20-8.954-20-20zm14.946 142.454c0-11.046 8.954-20 20-20s20 8.954 20 20-8.954 20-20 20-20-8.954-20-20z" fill="#e7e9ef"/><g fill="#00ccf2"><ellipse cx="201.937" cy="100.676" rx="20" ry="20" transform="matrix(.987 -.16 .16 .987 -13.519 33.647)"/><ellipse cx="156.437" cy="172.796" rx="20" ry="20" transform="matrix(.707 -.707 .707 .707 -76.366 161.229)"/><ellipse cx="180.168" cy="284.026" rx="20" ry="20" transform="matrix(.973 -.23 .23 .973 -60.436 48.992)"/><ellipse cx="195.114" cy="426.48" rx="20" ry="20" transform="matrix(.973 -.23 .23 .973 -92.765 56.237)"/></g><path d="m255.698 54.656v388.6c0 32.364 26.236 58.6 58.6 58.6 28.42 0 52.112-20.233 57.465-47.079 31.946-5.194 56.335-32.907 56.335-66.321 0-4.262-.402-8.43-1.16-12.472 28.589-11.569 48.76-39.591 48.76-72.329 0-30.816-17.872-57.455-43.815-70.125 13.871-12.31 22.615-30.27 22.615-50.274 0-26.997-15.922-50.27-38.885-60.956 1.867-5.336 2.885-11.071 2.885-17.045 0-28.498-23.102-51.6-51.6-51.6-7.713 0-15.029 1.695-21.6 4.729v-3.728c0-24.64-20.16-44.8-44.8-44.8s-44.8 20.16-44.8 44.8z" fill="#e38eba"/><ellipse cx="95.7" cy="303.655" fill="#00ccf2" rx="20" ry="20" transform="matrix(.973 -.23 .23 .973 -67.206 30.11)"/></g><g><path d="m485.698 303.655c0-29.417-14.255-56.128-37.938-72.41 28.934-35.359 18.764-90.896-20.431-114.002 9.026-42.397-30.591-81.669-72.897-72.328-8.569-47.604-71.051-61.338-98.733-21.786-27.702-39.572-90.176-25.79-98.732 21.786-42.312-9.341-81.923 29.937-72.897 72.329-39.203 23.11-49.358 78.649-20.432 114.002-54.453 36.496-48.878 121.644 9.933 150.75-1.754 20.496 4.92 41.148 18.329 56.718 10.396 12.109 24.264 20.68 39.575 24.571 17.227 56.541 94.028 65.738 124.225 15.606 30.218 50.157 107.014 40.905 124.226-15.605 35.704-8.464 61.598-44.676 57.904-81.289 29.32-14.972 47.868-44.931 47.868-78.342zm-341.199-239.999c6.078 0 11.936 1.281 17.408 3.808 3.098 1.43 6.708 1.183 9.581-.655 2.872-1.838 4.61-5.014 4.61-8.424v-3.729c1.917-46.178 67.7-46.142 69.6 0v36.02h-15.475c-11.59-31.316-57.648-23.816-58.286 10 .641 33.821 46.702 41.311 58.286 10h15.475v52.121h-60.974c-4.535-13.401-19.297-22.366-33.77-19.498l-15.011-25.999c-1.786-3.094-5.088-5-8.66-5h-23.789c-4.514-25.039 15.527-48.889 41.005-48.644zm67.438 37.02c0 5.514-4.486 10-10 10-13.266-.549-13.262-19.453 0-20 5.514 0 10 4.486 10 10zm-55.5 62.12c5.514 0 10 4.486 10 10-.55 13.266-19.452 13.262-20 0 0-5.514 4.487-10 10-10zm40.661 329.06c-23.105 0-43.148-16.416-47.658-39.034-.815-4.091-4.085-7.246-8.202-7.916-28.62-4.575-49.189-29.934-47.885-58.923h66.833l12.132 21.014c-4.489 5.245-7.204 12.053-7.204 19.482 1.646 39.797 58.357 39.789 60 0 .197-18.521-17.338-33.047-35.484-29.497l-15.01-25.999c-1.786-3.094-5.088-5-8.66-5h-79.486c-21.746-9.492-36.672-29.275-40.049-52.329h20.988c11.59 31.316 57.648 23.816 58.286-10-.641-33.821-46.702-41.311-58.286-10h-20.992c3.106-21.336 16.073-39.865 35.487-50.125h63.334l12.132 21.014c-18.208 21.328.478 54.022 28.277 48.98l15.011 25.999c1.786 3.094 5.088 5 8.66 5h36.376v98.734c0 26.798-21.802 48.6-48.6 48.6zm-1.985-75.376c5.515 0 10.001 4.486 10.001 10-.549 13.265-19.453 13.264-20 0 0-5.515 4.485-10 9.999-10zm-109.413-112.825c0-5.514 4.486-10 10-10 13.266.549 13.262 19.453 0 20-5.514 0-10-4.486-10-10zm94.468-9.629c-5.514 0-9.999-4.486-9.999-10 .549-13.267 19.453-13.262 20 0 0 5.514-4.487 10-10.001 10zm243.476 72.5c-.154.054-.307.111-.46.173-13.595 5.535-28.913 6.458-43.086 2.639-5.338-1.427-10.819 1.738-12.247 7.072-1.43 5.334 1.737 10.818 7.071 12.247 14.025 3.775 29.081 3.987 43.17.609-.381 27.748-20.295 51.017-47.67 55.596-.093.013-.185.026-.278.041-7.971 1.307-16.235.896-24.052-1.197-5.332-1.428-10.817 1.737-12.246 7.072-1.43 5.335 1.737 10.818 7.072 12.247 5.412 1.45 10.969 2.305 16.56 2.553-23.67 44.652-91.149 28.659-91.781-22.323v-142.395c-.528-13.268-19.476-13.258-20 0v23.662h-30.603l-12.133-21.013c18.21-21.329-.478-54.023-28.278-48.981l-15.01-25.999c-1.786-3.094-5.088-5-8.66-5h-67.525c-27.228-26.709-19.498-74.313 14.603-91.229h23.418l12.133 21.013c-16.564 19.068-2.699 49.585 22.795 49.482 13.037 0 24.158-8.359 28.286-19.999h60.975v28.063c.528 13.268 19.476 13.258 20 0v-156.203c1.64-44.827 65.107-46.679 69.529-2.241-8.971 5.362-16.39 12.885-21.676 22.04-2.762 4.783-1.123 10.899 3.66 13.66 4.698 2.737 10.884 1.166 13.66-3.66 4.324-7.49 10.761-13.361 18.615-16.981.107-.049.213-.101.318-.154 32.879-14.918 68.177 17.162 56.492 51.319-.046.117-.09.235-.132.355-3.288 9.396-9.847 17.311-18.467 22.288-4.783 2.762-6.422 8.877-3.66 13.661 2.776 4.827 8.961 6.397 13.66 3.661 9.31-5.375 16.995-13.065 22.361-22.231 27.868 18.94 32.746 60.534 9.611 85.298-3.009-1.174-6.084-2.183-9.196-3.016-5.337-1.43-10.817 1.737-12.247 7.071s1.736 10.818 7.071 12.247c4.19 1.123 8.294 2.657 12.195 4.559.143.069.286.135.43.197 52.096 25.351 49.378 102.102-4.278 123.797z"/><path d="m356.217 122.322c3.905-3.905 3.905-10.237 0-14.142-3.906-3.905-10.238-3.905-14.143 0-11.5 11.985-32.193 11.985-43.693 0-3.906-3.905-10.238-3.905-14.143 0s-3.905 10.237 0 14.142c18.945 19.745 53.035 19.744 71.979 0z"/><path d="m337.244 325.406c-11.118 2.979-20.41 10.109-26.165 20.077s-7.284 21.581-4.305 32.698c1.41 5.378 7.056 8.506 12.247 7.071 5.335-1.429 8.501-6.913 7.071-12.248-3.46-11.922 4.273-25.314 16.327-28.279 12.681-3.944 7.765-22.246-5.175-19.319z"/><path d="m368.247 191.811c-3.906-3.905-10.238-3.905-14.143 0-19.745 18.946-19.744 53.032 0 71.978 3.906 3.905 10.237 3.905 14.143 0 3.905-3.905 3.905-10.237 0-14.143-11.987-11.501-11.986-32.192 0-43.693 3.905-3.905 3.905-10.237 0-14.142z"/><path d="m255.698 245.86c-5.522 0-10 4.48-10 10.003.527 13.265 19.476 13.26 20 0v-.007c0-5.523-4.478-9.996-10-9.996z"/></g></g></svg>